<svg xmlns="http://www.w3.org/2000/svg" viewBox="0 0 512 512"><path fill="#f9d366" d="M223.727 231.117l46.992-81.39h-93.982z"/><path fill="#d83" d="M223.727 231.117l-16.803-81.39h-30.187z"/><g fill="#07c0bd"><path d="M359.088 155.315a7.831 7.831 0 01-7.832-7.832v-20.361c0-4.325 3.505-7.832 7.832-7.832s7.832 3.506 7.832 7.832v20.361a7.832 7.832 0 01-7.832 7.832zM359.088 210.133a7.831 7.831 0 01-7.832-7.832V181.94c0-4.325 3.505-7.832 7.832-7.832s7.832 3.506 7.832 7.832v20.361a7.832 7.832 0 01-7.832 7.832zM396.679 172.544h-20.361a7.831 7.831 0 01-7.832-7.832 7.831 7.831 0 017.832-7.832h20.361a7.831 7.831 0 017.832 7.832 7.833 7.833 0 01-7.832 7.832zM341.86 172.544h-20.361a7.831 7.831 0 01-7.832-7.832 7.831 7.831 0 017.832-7.832h20.361a7.831 7.831 0 017.832 7.832 7.833 7.833 0 01-7.832 7.832z"/></g><path d="M354.826 499.212H118.219c41.706-13.596 64.386-40.056 76.206-60.407a126.64 126.64 0 006.171-12.019l70.181-3.947a125.192 125.192 0 005.399 11.549c11.016 20.78 33.864 50.216 78.65 64.824z" fill="#f9d366"/><path d="M236.523 424.771l-11.768 2.015c-3.007 20.487-10.411 55.928-26.982 72.426h-79.558c50.623-16.498 73.209-51.939 82.378-72.426l35.93-2.015z" fill="#d83"/><path d="M247.917 424.124l-11.392.647 11.215-1.932c.05.418.114.846.177 1.285z" fill="#ddac33"/><path d="M161.849 280.2c10.202-34.981 34.062-59.52 61.88-59.52 28.277 0 52.482 25.364 62.381 61.295l-63.776 40.94-60.485-42.715z" fill="#f9d366"/><path d="M223.979 281.088l-62.13-.888c10.202-34.981 34.062-59.52 61.88-59.52h.125c-9.617.073-17.856 29.813-21.385 64.741l21.51-4.333z" fill="#d83"/><path d="M512 233.826s-26.081 3.197-58.056 35.173c-31.975 31.976-57.556 158.277-238.205 158.277-91.488 0-119.016-50.431-123.9-100.217-2.467-25.148 17.508-46.869 42.776-46.869h23.569c105.518 0 193.439 17.587 257.39-46.364H512z" fill="#f9d366"/><g fill="#d83"><path d="M276.176 434.388c-17.96 3.467-38.009 5.419-60.439 5.419-7.529 0-14.629-.345-21.312-1.002a126.64 126.64 0 006.171-12.019l30.645-19.337 39.536 15.39a125.598 125.598 0 005.399 11.549z"/><path d="M265.859 386.553c-91.488 0-119.016-50.431-123.9-100.217a42.683 42.683 0 01-.147-6.146h-7.196c-25.268 0-45.243 21.722-42.776 46.869 4.884 49.786 32.411 100.217 123.9 100.217 92.965 0 144.86-33.449 177.696-70.277-30.948 17.542-71.886 29.554-127.577 29.554z"/><path d="M66.9 422.313c-4.326 0-7.832-3.506-7.832-7.832s3.505-7.832 7.832-7.832c6.069 0 9.806-2.346 11.426-7.172 3.599-10.721-3.497-35.024-30.54-55.489C6.246 312.553-5.15 269.78 1.984 241.336c4.799-19.135 17.526-31.683 34.919-34.425 16.389-2.582 30.252.85 41.2 10.208 19.783 16.908 29.399 52.869 29.399 109.94 0 4.325-3.505 7.832-7.832 7.832s-7.832-3.506-7.832-7.832c0-51.49-8.045-84.472-23.911-98.033-7.412-6.333-16.758-8.508-28.585-6.642-14.909 2.351-20.288 15.272-22.167 22.764-8.115 32.359 15.077 67.446 40.061 86.354 14.033 10.62 24.889 23.415 31.392 37.004 6.299 13.161 7.913 25.932 4.546 35.96-3.808 11.34-13.385 17.847-26.274 17.847z"/></g><g fill="#3af6f3"><path d="M160.976 64.942a7.831 7.831 0 01-4.523-14.23c1.526-1.077 3.039-2.151 4.544-3.219 25.148-17.848 48.9-34.705 86.89-34.705 31.215 0 50.641 11.39 64.078 21.313a7.832 7.832 0 01-9.304 12.601c-12.22-9.024-28.286-18.25-54.774-18.25-32.996 0-53.769 14.744-77.824 31.816a2487.292 2487.292 0 01-4.577 3.242 7.81 7.81 0 01-4.51 1.432zM437.395 205.437a7.793 7.793 0 01-3.383-.774 7.831 7.831 0 01-3.672-10.449c10.67-22.227 11.052-48.775.975-67.635-8.39-15.704-23.73-25.562-44.358-28.509-29.926-4.275-48.947-21.073-64.232-34.57a7.832 7.832 0 1110.369-11.74c15.138 13.368 30.792 27.192 56.078 30.804 32.558 4.652 48.401 22.489 55.958 36.634 12.35 23.115 12.087 55.221-.668 81.795a7.836 7.836 0 01-7.067 4.444zM493.785 155.315a7.831 7.831 0 01-7.832-7.832c0-68.461-51.877-93.973-84.577-93.973-4.326 0-7.832-3.506-7.832-7.832s3.505-7.832 7.832-7.832c22.533 0 46.783 9.432 64.866 25.232 16.137 14.099 35.374 40.187 35.374 84.405a7.831 7.831 0 01-7.831 7.832z"/></g><path d="M122.987 92.63l16.491-3.344c7.786-1.579 7.786-12.705 0-14.284l-16.491-3.344a41.266 41.266 0 01-32.246-32.246l-3.344-16.491c-1.579-7.786-12.705-7.786-14.284 0L69.77 39.413A41.271 41.271 0 0137.523 71.66l-16.491 3.344c-7.786 1.579-7.786 12.705 0 14.284l16.491 3.344a41.266 41.266 0 0132.246 32.246l3.344 16.491c1.579 7.786 12.705 7.786 14.284 0l3.344-16.491a41.268 41.268 0 0132.246-32.248z" fill="#07c0bd"/><path d="M340.814 307.806c0 9.083-23.141 26.888-51.686 26.888s-51.686-17.806-51.686-26.888 23.141-6.003 51.686-6.003c28.546 0 51.686-3.079 51.686 6.003z" fill="#ffdb82"/></svg>