<svg id="Layer_1" enable-background="new 0 0 512 512" height="512" viewBox="0 0 512 512" width="512" xmlns="http://www.w3.org/2000/svg"><g><path clip-rule="evenodd" d="m145.249 210.489c-3.322.341-6.659.511-9.998.511-54.124 0-98-43.876-98-98s43.876-98 98-98c52.686 0 95.943 41.656 97.93 94.304" fill="#ffde46" fill-rule="evenodd"/><path d="m213.632 31.604c-21.163-20.38-49-31.604-78.382-31.604-62.309 0-113 50.692-113 113s50.691 113 113 113c3.837 0 7.717-.198 11.529-.589 8.241-.846 14.236-8.211 13.392-16.453-.846-8.241-8.224-14.237-16.452-13.391-2.801.288-5.649.433-8.469.433-17.475 0-33.697-5.442-47.086-14.701l115.472-115.471c8.643 12.552 13.936 27.641 14.556 44.043.313 8.277 7.271 14.75 15.555 14.423 8.278-.313 14.736-7.277 14.424-15.555-1.109-29.361-13.375-56.754-34.539-77.135zm-31.21 13.012-47.172 47.171-47.086-47.086c13.389-9.259 29.611-14.701 47.086-14.701 17.539 0 33.781 5.391 47.172 14.616zm-115.471 21.298 47.086 47.086-47.086 47.086c-9.259-13.389-14.701-29.611-14.701-47.086s5.442-33.697 14.701-47.086z" fill="#fdbf00"/><g><path d="m364.54 512h-154.891c-22.698 0-41.899-16.989-44.665-39.518-13.249-107.961-28.649-233.538-43.759-357.669-.52-4.263.813-8.543 3.66-11.757 2.848-3.216 6.936-5.056 11.23-5.056h302.001c4.297 0 8.387 1.842 11.233 5.06 2.848 3.218 4.178 7.502 3.655 11.766-14.623 119.209-29.22 238.421-43.799 357.636-2.756 22.54-21.958 39.538-44.665 39.538z" fill="#fff4f4"/></g><path d="m449.35 103.06c-2.847-3.218-6.937-5.06-11.233-5.06h-151v414h77.424c22.707 0 41.909-16.998 44.666-39.538 14.579-119.215 29.176-238.427 43.799-357.636.521-4.264-.809-8.548-3.656-11.766z" fill="#f6efea"/><path d="m209.649 482h154.891c7.692 0 13.954-5.543 14.889-13.18 11.284-92.274 22.589-184.548 33.898-276.82h-252.469c11.839 96.974 23.53 192.297 33.904 276.827.936 7.633 7.198 13.173 14.887 13.173z" fill="#7dd5f4"/><path d="m287.116 192v290h77.424c7.692 0 13.954-5.543 14.889-13.18 11.284-92.274 22.589-184.548 33.898-276.82z" fill="#4793ff"/><path d="m329.377 188-45.066 143.264c-2.486 7.902 1.905 16.324 9.808 18.81 1.498.471 3.014.695 4.505.695 6.376 0 12.29-4.099 14.305-10.503l47.897-152.266z" fill="#0040a0"/><g><path d="m218.744 356.514c-4.692 0-9.256-2.435-11.771-6.791l-31.643-54.806c-1.801-3.119-2.289-6.825-1.357-10.303.933-3.479 3.208-6.444 6.327-8.245l54.806-31.642c6.494-3.749 14.798-1.525 18.548 4.97l31.643 54.806c1.801 3.119 2.289 6.825 1.357 10.303-.933 3.479-3.208 6.444-6.327 8.245l-54.806 31.642c-2.139 1.234-4.473 1.821-6.777 1.821z" fill="#f6efea"/></g><g><path d="m278.548 482.002c-5.184 0-10.226-2.69-13.004-7.502l-30-51.961c-1.989-3.445-2.528-7.54-1.499-11.382 1.03-3.843 3.544-7.119 6.989-9.108l51.962-30c7.174-4.142 16.348-1.685 20.49 5.49l30 51.961c1.989 3.445 2.528 7.54 1.499 11.382-1.03 3.843-3.544 7.119-6.989 9.108l-51.962 30c-2.362 1.364-4.941 2.012-7.486 2.012z" fill="#f6efea"/></g><g><path d="m350.47 382.489c-1.3 0-2.604-.169-3.881-.511l-57.955-15.529c-8.003-2.144-12.751-10.369-10.607-18.371l15.529-57.956c2.145-8.002 10.376-12.752 18.371-10.606l57.955 15.529c3.843 1.03 7.119 3.543 9.108 6.989s2.528 7.54 1.499 11.382l-15.529 57.956c-1.03 3.843-3.544 7.119-6.989 9.108-2.3 1.327-4.89 2.009-7.501 2.009z" fill="#f6efea"/></g><path d="m474.75 0h-75.229c-6.551 0-12.343 4.25-14.309 10.499l-57.093 181.501h31.449l50.96-162h64.223c8.284 0 15-6.716 15-15s-6.717-15-15.001-15z" fill="#525cdd"/><g fill="#eee1dc"><path d="m343.486 429.5-30-51.961c-4.143-7.175-13.316-9.632-20.49-5.49l-5.88 3.395v103.922l50.88-29.375c3.445-1.989 5.959-5.265 6.989-9.108s.491-7.938-1.499-11.383z"/><path d="m378.99 302.033c-1.989-3.445-5.266-5.959-9.108-6.989l-57.955-15.529c-7.995-2.146-16.227 2.604-18.371 10.606l-6.44 24.034v51.797c.492.189.997.357 1.518.496l57.955 15.529c1.276.342 2.581.511 3.881.511 2.611 0 5.201-.682 7.501-2.01 3.445-1.989 5.959-5.265 6.989-9.108l15.529-57.956c1.03-3.841.49-7.936-1.499-11.381z"/></g></g></svg>