<svg viewBox="0 0 512 512" xmlns="http://www.w3.org/2000/svg"><path clip-rule="evenodd" d="M145.249 210.489a97.91 97.91 0 01-9.998.511c-54.124 0-98-43.876-98-98s43.876-98 98-98c52.686 0 95.943 41.656 97.93 94.304" fill="#ffde46" fill-rule="evenodd"/><path d="M213.632 31.604C192.469 11.224 164.632 0 135.25 0c-62.309 0-113 50.692-113 113s50.691 113 113 113c3.837 0 7.717-.198 11.529-.589 8.241-.846 14.236-8.211 13.392-16.453-.846-8.241-8.224-14.237-16.452-13.391a83.113 83.113 0 01-8.469.433c-17.475 0-33.697-5.442-47.086-14.701L203.636 65.828c8.643 12.552 13.936 27.641 14.556 44.043.313 8.277 7.271 14.75 15.555 14.423 8.278-.313 14.736-7.277 14.424-15.555-1.109-29.361-13.375-56.754-34.539-77.135zm-31.21 13.012L135.25 91.787 88.164 44.701C101.553 35.442 117.775 30 135.25 30c17.539 0 33.781 5.391 47.172 14.616zM66.951 65.914L114.037 113l-47.086 47.086C57.692 146.697 52.25 130.475 52.25 113s5.442-33.697 14.701-47.086z" fill="#fdbf00"/><path d="M364.54 512H209.649c-22.698 0-41.899-16.989-44.665-39.518-13.249-107.961-28.649-233.538-43.759-357.669A15 15 0 01136.115 98h302.001a14.998 14.998 0 0114.888 16.826 974571.444 974571.444 0 00-43.799 357.636C406.449 495.002 387.247 512 364.54 512z" fill="#fff4f4"/><path d="M449.35 103.06A14.998 14.998 0 00438.117 98h-151v414h77.424c22.707 0 41.909-16.998 44.666-39.538a974571.444 974571.444 0 0143.799-357.636 15.01 15.01 0 00-3.656-11.766z" fill="#f6efea"/><path d="M209.649 482H364.54c7.692 0 13.954-5.543 14.889-13.18 11.284-92.274 22.589-184.548 33.898-276.82H160.858a441770.45 441770.45 0 0033.904 276.827c.936 7.633 7.198 13.173 14.887 13.173z" fill="#7dd5f4"/><path d="M287.116 192v290h77.424c7.692 0 13.954-5.543 14.889-13.18 11.284-92.274 22.589-184.548 33.898-276.82z" fill="#4793ff"/><path d="M329.377 188l-45.066 143.264c-2.486 7.902 1.905 16.324 9.808 18.81 1.498.471 3.014.695 4.505.695 6.376 0 12.29-4.099 14.305-10.503L360.826 188z" fill="#0040a0"/><path d="M218.744 356.514a13.572 13.572 0 01-11.771-6.791l-31.643-54.806a13.576 13.576 0 014.97-18.548l54.806-31.642c6.494-3.749 14.798-1.525 18.548 4.97l31.643 54.806a13.576 13.576 0 01-4.97 18.548l-54.806 31.642a13.524 13.524 0 01-6.777 1.821zm59.804 125.488c-5.184 0-10.226-2.69-13.004-7.502l-30-51.961a15.001 15.001 0 015.49-20.49l51.962-30c7.174-4.142 16.348-1.685 20.49 5.49l30 51.961a15.001 15.001 0 01-5.49 20.49l-51.962 30a14.928 14.928 0 01-7.486 2.012z" fill="#f6efea"/><path d="M350.47 382.489c-1.3 0-2.604-.169-3.881-.511l-57.955-15.529c-8.003-2.144-12.751-10.369-10.607-18.371l15.529-57.956c2.145-8.002 10.376-12.752 18.371-10.606l57.955 15.529a14.997 14.997 0 0110.607 18.371l-15.529 57.956a15.001 15.001 0 01-14.49 11.117z" fill="#f6efea"/><path d="M474.75 0h-75.229a15 15 0 00-14.309 10.499L328.119 192h31.449l50.96-162h64.223c8.284 0 15-6.716 15-15S483.034 0 474.75 0z" fill="#525cdd"/><g fill="#eee1dc"><path d="M343.486 429.5l-30-51.961c-4.143-7.175-13.316-9.632-20.49-5.49l-5.88 3.395v103.922l50.88-29.375a15.001 15.001 0 005.49-20.491z"/><path d="M378.99 302.033a15.004 15.004 0 00-9.108-6.989l-57.955-15.529c-7.995-2.146-16.227 2.604-18.371 10.606l-6.44 24.034v51.797c.492.189.997.357 1.518.496l57.955 15.529a14.99 14.99 0 0011.382-1.499 15.001 15.001 0 006.989-9.108l15.529-57.956c1.03-3.841.49-7.936-1.499-11.381z"/></g></svg>